<?xml version="1.0" encoding="utf-8" standalone="no"?>
<!DOCTYPE svg PUBLIC "-//W3C//DTD SVG 1.1//EN"
  "http://www.w3.org/Graphics/SVG/1.1/DTD/svg11.dtd">
<!-- Created with matplotlib (https://matplotlib.org/) -->
<svg height="470.140419pt" version="1.1" viewBox="0 0 495.148231 470.140419" width="495.148231pt" xmlns="http://www.w3.org/2000/svg" xmlns:xlink="http://www.w3.org/1999/xlink">
 <defs>
  <style type="text/css">
*{stroke-linecap:butt;stroke-linejoin:round;}
  </style>
 </defs>
 <g id="figure_1">
  <g id="patch_1">
   <path d="M 0 470.140419 
L 495.148231 470.140419 
L 495.148231 0 
L 0 0 
z
" style="fill:#ffffff;"/>
  </g>
  <g id="axes_1">
   <g id="patch_2">
    <path d="M 59.717763 426.578906 
L 478.217762 426.578906 
L 478.217762 10.778906 
L 59.717763 10.778906 
z
" style="fill:#4c4c4c;"/>
   </g>
   <g id="matplotlib.axis_1">
    <g id="xtick_1">
     <g id="line2d_1">
      <path clip-path="url(#pd0b5a2d2b7)" d="M 59.717762 426.578906 
L 59.717762 10.778906 
" style="fill:none;stroke:#666666;stroke-linecap:round;"/>
     </g>
     <g id="line2d_2"/>
     <g id="text_1">
      <!-- −1.00 -->
      <defs>
       <path d="M 52.828125 31.203125 
L 5.5625 31.203125 
L 5.5625 39.40625 
L 52.828125 39.40625 
z
" id="ArialMT-8722"/>
       <path d="M 37.25 0 
L 28.46875 0 
L 28.46875 56 
Q 25.296875 52.984375 20.140625 49.953125 
Q 14.984375 46.921875 10.890625 45.40625 
L 10.890625 53.90625 
Q 18.265625 57.375 23.78125 62.296875 
Q 29.296875 67.234375 31.59375 71.875 
L 37.25 71.875 
z
" id="ArialMT-49"/>
       <path d="M 9.078125 0 
L 9.078125 10.015625 
L 19.09375 10.015625 
L 19.09375 0 
z
" id="ArialMT-46"/>
       <path d="M 4.15625 35.296875 
Q 4.15625 48 6.765625 55.734375 
Q 9.375 63.484375 14.515625 67.671875 
Q 19.671875 71.875 27.484375 71.875 
Q 33.25 71.875 37.59375 69.546875 
Q 41.9375 67.234375 44.765625 62.859375 
Q 47.609375 58.5 49.21875 52.21875 
Q 50.828125 45.953125 50.828125 35.296875 
Q 50.828125 22.703125 48.234375 14.96875 
Q 45.65625 7.234375 40.5 3 
Q 35.359375 -1.21875 27.484375 -1.21875 
Q 17.140625 -1.21875 11.234375 6.203125 
Q 4.15625 15.140625 4.15625 35.296875 
z
M 13.1875 35.296875 
Q 13.1875 17.671875 17.3125 11.828125 
Q 21.4375 6 27.484375 6 
Q 33.546875 6 37.671875 11.859375 
Q 41.796875 17.71875 41.796875 35.296875 
Q 41.796875 52.984375 37.671875 58.78125 
Q 33.546875 64.59375 27.390625 64.59375 
Q 21.34375 64.59375 17.71875 59.46875 
Q 13.1875 52.9375 13.1875 35.296875 
z
" id="ArialMT-48"/>
      </defs>
      <g style="fill:#262626;" transform="translate(47.066981 440.736719)scale(0.1 -0.1)">
       <use xlink:href="#ArialMT-8722"/>
       <use x="58.398438" xlink:href="#ArialMT-49"/>
       <use x="114.013672" xlink:href="#ArialMT-46"/>
       <use x="141.796875" xlink:href="#ArialMT-48"/>
       <use x="197.412109" xlink:href="#ArialMT-48"/>
      </g>
     </g>
    </g>
    <g id="xtick_2">
     <g id="line2d_3">
      <path clip-path="url(#pd0b5a2d2b7)" d="M 112.030262 426.578906 
L 112.030262 10.778906 
" style="fill:none;stroke:#666666;stroke-linecap:round;"/>
     </g>
     <g id="line2d_4"/>
     <g id="text_2">
      <!-- −0.75 -->
      <defs>
       <path d="M 4.734375 62.203125 
L 4.734375 70.65625 
L 51.078125 70.65625 
L 51.078125 63.8125 
Q 44.234375 56.546875 37.515625 44.484375 
Q 30.8125 32.421875 27.15625 19.671875 
Q 24.515625 10.6875 23.78125 0 
L 14.75 0 
Q 14.890625 8.453125 18.0625 20.40625 
Q 21.234375 32.375 27.171875 43.484375 
Q 33.109375 54.59375 39.796875 62.203125 
z
" id="ArialMT-55"/>
       <path d="M 4.15625 18.75 
L 13.375 19.53125 
Q 14.40625 12.796875 18.140625 9.390625 
Q 21.875 6 27.15625 6 
Q 33.5 6 37.890625 10.78125 
Q 42.28125 15.578125 42.28125 23.484375 
Q 42.28125 31 38.0625 35.34375 
Q 33.84375 39.703125 27 39.703125 
Q 22.75 39.703125 19.328125 37.765625 
Q 15.921875 35.84375 13.96875 32.765625 
L 5.71875 33.84375 
L 12.640625 70.609375 
L 48.25 70.609375 
L 48.25 62.203125 
L 19.671875 62.203125 
L 15.828125 42.96875 
Q 22.265625 47.46875 29.34375 47.46875 
Q 38.71875 47.46875 45.15625 40.96875 
Q 51.609375 34.46875 51.609375 24.265625 
Q 51.609375 14.546875 45.953125 7.46875 
Q 39.0625 -1.21875 27.15625 -1.21875 
Q 17.390625 -1.21875 11.203125 4.25 
Q 5.03125 9.71875 4.15625 18.75 
z
" id="ArialMT-53"/>
      </defs>
      <g style="fill:#262626;" transform="translate(99.379481 440.736719)scale(0.1 -0.1)">
       <use xlink:href="#ArialMT-8722"/>
       <use x="58.398438" xlink:href="#ArialMT-48"/>
       <use x="114.013672" xlink:href="#ArialMT-46"/>
       <use x="141.796875" xlink:href="#ArialMT-55"/>
       <use x="197.412109" xlink:href="#ArialMT-53"/>
      </g>
     </g>
    </g>
    <g id="xtick_3">
     <g id="line2d_5">
      <path clip-path="url(#pd0b5a2d2b7)" d="M 164.342762 426.578906 
L 164.342762 10.778906 
" style="fill:none;stroke:#666666;stroke-linecap:round;"/>
     </g>
     <g id="line2d_6"/>
     <g id="text_3">
      <!-- −0.50 -->
      <g style="fill:#262626;" transform="translate(151.691981 440.736719)scale(0.1 -0.1)">
       <use xlink:href="#ArialMT-8722"/>
       <use x="58.398438" xlink:href="#ArialMT-48"/>
       <use x="114.013672" xlink:href="#ArialMT-46"/>
       <use x="141.796875" xlink:href="#ArialMT-53"/>
       <use x="197.412109" xlink:href="#ArialMT-48"/>
      </g>
     </g>
    </g>
    <g id="xtick_4">
     <g id="line2d_7">
      <path clip-path="url(#pd0b5a2d2b7)" d="M 216.655262 426.578906 
L 216.655262 10.778906 
" style="fill:none;stroke:#666666;stroke-linecap:round;"/>
     </g>
     <g id="line2d_8"/>
     <g id="text_4">
      <!-- −0.25 -->
      <defs>
       <path d="M 50.34375 8.453125 
L 50.34375 0 
L 3.03125 0 
Q 2.9375 3.171875 4.046875 6.109375 
Q 5.859375 10.9375 9.828125 15.625 
Q 13.8125 20.3125 21.34375 26.46875 
Q 33.015625 36.03125 37.109375 41.625 
Q 41.21875 47.21875 41.21875 52.203125 
Q 41.21875 57.421875 37.46875 61 
Q 33.734375 64.59375 27.734375 64.59375 
Q 21.390625 64.59375 17.578125 60.78125 
Q 13.765625 56.984375 13.71875 50.25 
L 4.6875 51.171875 
Q 5.609375 61.28125 11.65625 66.578125 
Q 17.71875 71.875 27.9375 71.875 
Q 38.234375 71.875 44.234375 66.15625 
Q 50.25 60.453125 50.25 52 
Q 50.25 47.703125 48.484375 43.546875 
Q 46.734375 39.40625 42.65625 34.8125 
Q 38.578125 30.21875 29.109375 22.21875 
Q 21.1875 15.578125 18.9375 13.203125 
Q 16.703125 10.84375 15.234375 8.453125 
z
" id="ArialMT-50"/>
      </defs>
      <g style="fill:#262626;" transform="translate(204.004481 440.736719)scale(0.1 -0.1)">
       <use xlink:href="#ArialMT-8722"/>
       <use x="58.398438" xlink:href="#ArialMT-48"/>
       <use x="114.013672" xlink:href="#ArialMT-46"/>
       <use x="141.796875" xlink:href="#ArialMT-50"/>
       <use x="197.412109" xlink:href="#ArialMT-53"/>
      </g>
     </g>
    </g>
    <g id="xtick_5">
     <g id="line2d_9">
      <path clip-path="url(#pd0b5a2d2b7)" d="M 268.967762 426.578906 
L 268.967762 10.778906 
" style="fill:none;stroke:#666666;stroke-linecap:round;"/>
     </g>
     <g id="line2d_10"/>
     <g id="text_5">
      <!-- 0.00 -->
      <g style="fill:#262626;" transform="translate(259.237294 440.736719)scale(0.1 -0.1)">
       <use xlink:href="#ArialMT-48"/>
       <use x="55.615234" xlink:href="#ArialMT-46"/>
       <use x="83.398438" xlink:href="#ArialMT-48"/>
       <use x="139.013672" xlink:href="#ArialMT-48"/>
      </g>
     </g>
    </g>
    <g id="xtick_6">
     <g id="line2d_11">
      <path clip-path="url(#pd0b5a2d2b7)" d="M 321.280262 426.578906 
L 321.280262 10.778906 
" style="fill:none;stroke:#666666;stroke-linecap:round;"/>
     </g>
     <g id="line2d_12"/>
     <g id="text_6">
      <!-- 0.25 -->
      <g style="fill:#262626;" transform="translate(311.549794 440.736719)scale(0.1 -0.1)">
       <use xlink:href="#ArialMT-48"/>
       <use x="55.615234" xlink:href="#ArialMT-46"/>
       <use x="83.398438" xlink:href="#ArialMT-50"/>
       <use x="139.013672" xlink:href="#ArialMT-53"/>
      </g>
     </g>
    </g>
    <g id="xtick_7">
     <g id="line2d_13">
      <path clip-path="url(#pd0b5a2d2b7)" d="M 373.592762 426.578906 
L 373.592762 10.778906 
" style="fill:none;stroke:#666666;stroke-linecap:round;"/>
     </g>
     <g id="line2d_14"/>
     <g id="text_7">
      <!-- 0.50 -->
      <g style="fill:#262626;" transform="translate(363.862294 440.736719)scale(0.1 -0.1)">
       <use xlink:href="#ArialMT-48"/>
       <use x="55.615234" xlink:href="#ArialMT-46"/>
       <use x="83.398438" xlink:href="#ArialMT-53"/>
       <use x="139.013672" xlink:href="#ArialMT-48"/>
      </g>
     </g>
    </g>
    <g id="xtick_8">
     <g id="line2d_15">
      <path clip-path="url(#pd0b5a2d2b7)" d="M 425.905262 426.578906 
L 425.905262 10.778906 
" style="fill:none;stroke:#666666;stroke-linecap:round;"/>
     </g>
     <g id="line2d_16"/>
     <g id="text_8">
      <!-- 0.75 -->
      <g style="fill:#262626;" transform="translate(416.174794 440.736719)scale(0.1 -0.1)">
       <use xlink:href="#ArialMT-48"/>
       <use x="55.615234" xlink:href="#ArialMT-46"/>
       <use x="83.398438" xlink:href="#ArialMT-55"/>
       <use x="139.013672" xlink:href="#ArialMT-53"/>
      </g>
     </g>
    </g>
    <g id="xtick_9">
     <g id="line2d_17">
      <path clip-path="url(#pd0b5a2d2b7)" d="M 478.217762 426.578906 
L 478.217762 10.778906 
" style="fill:none;stroke:#666666;stroke-linecap:round;"/>
     </g>
     <g id="line2d_18"/>
     <g id="text_9">
      <!-- 1.00 -->
      <g style="fill:#262626;" transform="translate(468.487294 440.736719)scale(0.1 -0.1)">
       <use xlink:href="#ArialMT-49"/>
       <use x="55.615234" xlink:href="#ArialMT-46"/>
       <use x="83.398438" xlink:href="#ArialMT-48"/>
       <use x="139.013672" xlink:href="#ArialMT-48"/>
      </g>
     </g>
    </g>
    <g id="text_10">
     <!-- Factor 1 (63.68% of variance explained) -->
     <defs>
      <path d="M 8.203125 0 
L 8.203125 71.578125 
L 56.5 71.578125 
L 56.5 63.140625 
L 17.671875 63.140625 
L 17.671875 40.96875 
L 51.265625 40.96875 
L 51.265625 32.515625 
L 17.671875 32.515625 
L 17.671875 0 
z
" id="ArialMT-70"/>
      <path d="M 40.4375 6.390625 
Q 35.546875 2.25 31.03125 0.53125 
Q 26.515625 -1.171875 21.34375 -1.171875 
Q 12.796875 -1.171875 8.203125 3 
Q 3.609375 7.171875 3.609375 13.671875 
Q 3.609375 17.484375 5.34375 20.625 
Q 7.078125 23.78125 9.890625 25.6875 
Q 12.703125 27.59375 16.21875 28.5625 
Q 18.796875 29.25 24.03125 29.890625 
Q 34.671875 31.15625 39.703125 32.90625 
Q 39.75 34.71875 39.75 35.203125 
Q 39.75 40.578125 37.25 42.78125 
Q 33.890625 45.75 27.25 45.75 
Q 21.046875 45.75 18.09375 43.578125 
Q 15.140625 41.40625 13.71875 35.890625 
L 5.125 37.0625 
Q 6.296875 42.578125 8.984375 45.96875 
Q 11.671875 49.359375 16.75 51.1875 
Q 21.828125 53.03125 28.515625 53.03125 
Q 35.15625 53.03125 39.296875 51.46875 
Q 43.453125 49.90625 45.40625 47.53125 
Q 47.359375 45.171875 48.140625 41.546875 
Q 48.578125 39.3125 48.578125 33.453125 
L 48.578125 21.734375 
Q 48.578125 9.46875 49.140625 6.21875 
Q 49.703125 2.984375 51.375 0 
L 42.1875 0 
Q 40.828125 2.734375 40.4375 6.390625 
z
M 39.703125 26.03125 
Q 34.90625 24.078125 25.34375 22.703125 
Q 19.921875 21.921875 17.671875 20.9375 
Q 15.4375 19.96875 14.203125 18.09375 
Q 12.984375 16.21875 12.984375 13.921875 
Q 12.984375 10.40625 15.640625 8.0625 
Q 18.3125 5.71875 23.4375 5.71875 
Q 28.515625 5.71875 32.46875 7.9375 
Q 36.421875 10.15625 38.28125 14.015625 
Q 39.703125 17 39.703125 22.796875 
z
" id="ArialMT-97"/>
      <path d="M 40.4375 19 
L 49.078125 17.875 
Q 47.65625 8.9375 41.8125 3.875 
Q 35.984375 -1.171875 27.484375 -1.171875 
Q 16.84375 -1.171875 10.375 5.78125 
Q 3.90625 12.75 3.90625 25.734375 
Q 3.90625 34.125 6.6875 40.421875 
Q 9.46875 46.734375 15.15625 49.875 
Q 20.84375 53.03125 27.546875 53.03125 
Q 35.984375 53.03125 41.359375 48.75 
Q 46.734375 44.484375 48.25 36.625 
L 39.703125 35.296875 
Q 38.484375 40.53125 35.375 43.15625 
Q 32.28125 45.796875 27.875 45.796875 
Q 21.234375 45.796875 17.078125 41.03125 
Q 12.9375 36.28125 12.9375 25.984375 
Q 12.9375 15.53125 16.9375 10.796875 
Q 20.953125 6.0625 27.390625 6.0625 
Q 32.5625 6.0625 36.03125 9.234375 
Q 39.5 12.40625 40.4375 19 
z
" id="ArialMT-99"/>
      <path d="M 25.78125 7.859375 
L 27.046875 0.09375 
Q 23.34375 -0.6875 20.40625 -0.6875 
Q 15.625 -0.6875 12.984375 0.828125 
Q 10.359375 2.34375 9.28125 4.8125 
Q 8.203125 7.28125 8.203125 15.1875 
L 8.203125 45.015625 
L 1.765625 45.015625 
L 1.765625 51.859375 
L 8.203125 51.859375 
L 8.203125 64.703125 
L 16.9375 69.96875 
L 16.9375 51.859375 
L 25.78125 51.859375 
L 25.78125 45.015625 
L 16.9375 45.015625 
L 16.9375 14.703125 
Q 16.9375 10.9375 17.40625 9.859375 
Q 17.875 8.796875 18.921875 8.15625 
Q 19.96875 7.515625 21.921875 7.515625 
Q 23.390625 7.515625 25.78125 7.859375 
z
" id="ArialMT-116"/>
      <path d="M 3.328125 25.921875 
Q 3.328125 40.328125 11.328125 47.265625 
Q 18.015625 53.03125 27.640625 53.03125 
Q 38.328125 53.03125 45.109375 46.015625 
Q 51.90625 39.015625 51.90625 26.65625 
Q 51.90625 16.65625 48.90625 10.90625 
Q 45.90625 5.171875 40.15625 2 
Q 34.421875 -1.171875 27.640625 -1.171875 
Q 16.75 -1.171875 10.03125 5.8125 
Q 3.328125 12.796875 3.328125 25.921875 
z
M 12.359375 25.921875 
Q 12.359375 15.96875 16.703125 11.015625 
Q 21.046875 6.0625 27.640625 6.0625 
Q 34.1875 6.0625 38.53125 11.03125 
Q 42.875 16.015625 42.875 26.21875 
Q 42.875 35.84375 38.5 40.796875 
Q 34.125 45.75 27.640625 45.75 
Q 21.046875 45.75 16.703125 40.8125 
Q 12.359375 35.890625 12.359375 25.921875 
z
" id="ArialMT-111"/>
      <path d="M 6.5 0 
L 6.5 51.859375 
L 14.40625 51.859375 
L 14.40625 44 
Q 17.4375 49.515625 20 51.265625 
Q 22.5625 53.03125 25.640625 53.03125 
Q 30.078125 53.03125 34.671875 50.203125 
L 31.640625 42.046875 
Q 28.421875 43.953125 25.203125 43.953125 
Q 22.3125 43.953125 20.015625 42.21875 
Q 17.71875 40.484375 16.75 37.40625 
Q 15.28125 32.71875 15.28125 27.15625 
L 15.28125 0 
z
" id="ArialMT-114"/>
      <path id="ArialMT-32"/>
      <path d="M 23.390625 -21.046875 
Q 16.109375 -11.859375 11.078125 0.4375 
Q 6.0625 12.75 6.0625 25.921875 
Q 6.0625 37.546875 9.8125 48.1875 
Q 14.203125 60.546875 23.390625 72.796875 
L 29.6875 72.796875 
Q 23.78125 62.640625 21.875 58.296875 
Q 18.890625 51.5625 17.1875 44.234375 
Q 15.09375 35.109375 15.09375 25.875 
Q 15.09375 2.390625 29.6875 -21.046875 
z
" id="ArialMT-40"/>
      <path d="M 49.75 54.046875 
L 41.015625 53.375 
Q 39.84375 58.546875 37.703125 60.890625 
Q 34.125 64.65625 28.90625 64.65625 
Q 24.703125 64.65625 21.53125 62.3125 
Q 17.390625 59.28125 14.984375 53.46875 
Q 12.59375 47.65625 12.5 36.921875 
Q 15.671875 41.75 20.265625 44.09375 
Q 24.859375 46.4375 29.890625 46.4375 
Q 38.671875 46.4375 44.84375 39.96875 
Q 51.03125 33.5 51.03125 23.25 
Q 51.03125 16.5 48.125 10.71875 
Q 45.21875 4.9375 40.140625 1.859375 
Q 35.0625 -1.21875 28.609375 -1.21875 
Q 17.625 -1.21875 10.6875 6.859375 
Q 3.765625 14.9375 3.765625 33.5 
Q 3.765625 54.25 11.421875 63.671875 
Q 18.109375 71.875 29.4375 71.875 
Q 37.890625 71.875 43.28125 67.140625 
Q 48.6875 62.40625 49.75 54.046875 
z
M 13.875 23.1875 
Q 13.875 18.65625 15.796875 14.5 
Q 17.71875 10.359375 21.1875 8.171875 
Q 24.65625 6 28.46875 6 
Q 34.03125 6 38.03125 10.484375 
Q 42.046875 14.984375 42.046875 22.703125 
Q 42.046875 30.125 38.078125 34.390625 
Q 34.125 38.671875 28.125 38.671875 
Q 22.171875 38.671875 18.015625 34.390625 
Q 13.875 30.125 13.875 23.1875 
z
" id="ArialMT-54"/>
      <path d="M 4.203125 18.890625 
L 12.984375 20.0625 
Q 14.5 12.59375 18.140625 9.296875 
Q 21.78125 6 27 6 
Q 33.203125 6 37.46875 10.296875 
Q 41.75 14.59375 41.75 20.953125 
Q 41.75 27 37.796875 30.921875 
Q 33.84375 34.859375 27.734375 34.859375 
Q 25.25 34.859375 21.53125 33.890625 
L 22.515625 41.609375 
Q 23.390625 41.5 23.921875 41.5 
Q 29.546875 41.5 34.03125 44.421875 
Q 38.53125 47.359375 38.53125 53.46875 
Q 38.53125 58.296875 35.25 61.46875 
Q 31.984375 64.65625 26.8125 64.65625 
Q 21.6875 64.65625 18.265625 61.421875 
Q 14.84375 58.203125 13.875 51.765625 
L 5.078125 53.328125 
Q 6.6875 62.15625 12.390625 67.015625 
Q 18.109375 71.875 26.609375 71.875 
Q 32.46875 71.875 37.390625 69.359375 
Q 42.328125 66.84375 44.9375 62.5 
Q 47.5625 58.15625 47.5625 53.265625 
Q 47.5625 48.640625 45.0625 44.828125 
Q 42.578125 41.015625 37.703125 38.765625 
Q 44.046875 37.3125 47.5625 32.6875 
Q 51.078125 28.078125 51.078125 21.140625 
Q 51.078125 11.765625 44.234375 5.25 
Q 37.40625 -1.265625 26.953125 -1.265625 
Q 17.53125 -1.265625 11.296875 4.34375 
Q 5.078125 9.96875 4.203125 18.890625 
z
" id="ArialMT-51"/>
      <path d="M 17.671875 38.8125 
Q 12.203125 40.828125 9.5625 44.53125 
Q 6.9375 48.25 6.9375 53.421875 
Q 6.9375 61.234375 12.546875 66.546875 
Q 18.171875 71.875 27.484375 71.875 
Q 36.859375 71.875 42.578125 66.421875 
Q 48.296875 60.984375 48.296875 53.171875 
Q 48.296875 48.1875 45.671875 44.5 
Q 43.0625 40.828125 37.75 38.8125 
Q 44.34375 36.671875 47.78125 31.875 
Q 51.21875 27.09375 51.21875 20.453125 
Q 51.21875 11.28125 44.71875 5.03125 
Q 38.234375 -1.21875 27.640625 -1.21875 
Q 17.046875 -1.21875 10.546875 5.046875 
Q 4.046875 11.328125 4.046875 20.703125 
Q 4.046875 27.6875 7.59375 32.390625 
Q 11.140625 37.109375 17.671875 38.8125 
z
M 15.921875 53.71875 
Q 15.921875 48.640625 19.1875 45.40625 
Q 22.46875 42.1875 27.6875 42.1875 
Q 32.765625 42.1875 36.015625 45.375 
Q 39.265625 48.578125 39.265625 53.21875 
Q 39.265625 58.0625 35.90625 61.359375 
Q 32.5625 64.65625 27.59375 64.65625 
Q 22.5625 64.65625 19.234375 61.421875 
Q 15.921875 58.203125 15.921875 53.71875 
z
M 13.09375 20.65625 
Q 13.09375 16.890625 14.875 13.375 
Q 16.65625 9.859375 20.171875 7.921875 
Q 23.6875 6 27.734375 6 
Q 34.03125 6 38.125 10.046875 
Q 42.234375 14.109375 42.234375 20.359375 
Q 42.234375 26.703125 38.015625 30.859375 
Q 33.796875 35.015625 27.4375 35.015625 
Q 21.234375 35.015625 17.15625 30.90625 
Q 13.09375 26.8125 13.09375 20.65625 
z
" id="ArialMT-56"/>
      <path d="M 5.8125 54.390625 
Q 5.8125 62.0625 9.671875 67.421875 
Q 13.53125 72.796875 20.84375 72.796875 
Q 27.59375 72.796875 32 67.984375 
Q 36.421875 63.1875 36.421875 53.859375 
Q 36.421875 44.78125 31.953125 39.875 
Q 27.484375 34.96875 20.953125 34.96875 
Q 14.453125 34.96875 10.125 39.796875 
Q 5.8125 44.625 5.8125 54.390625 
z
M 21.09375 66.75 
Q 17.828125 66.75 15.65625 63.90625 
Q 13.484375 61.078125 13.484375 53.515625 
Q 13.484375 46.625 15.671875 43.8125 
Q 17.875 41.015625 21.09375 41.015625 
Q 24.421875 41.015625 26.59375 43.84375 
Q 28.765625 46.6875 28.765625 54.203125 
Q 28.765625 61.140625 26.5625 63.9375 
Q 24.359375 66.75 21.09375 66.75 
z
M 21.140625 -2.640625 
L 60.296875 72.796875 
L 67.4375 72.796875 
L 28.421875 -2.640625 
z
M 52.09375 16.796875 
Q 52.09375 24.515625 55.953125 29.859375 
Q 59.8125 35.203125 67.1875 35.203125 
Q 73.921875 35.203125 78.34375 30.390625 
Q 82.765625 25.59375 82.765625 16.265625 
Q 82.765625 7.171875 78.296875 2.265625 
Q 73.828125 -2.640625 67.234375 -2.640625 
Q 60.75 -2.640625 56.421875 2.21875 
Q 52.09375 7.078125 52.09375 16.796875 
z
M 67.4375 29.15625 
Q 64.109375 29.15625 61.9375 26.3125 
Q 59.765625 23.484375 59.765625 15.921875 
Q 59.765625 9.078125 61.953125 6.25 
Q 64.15625 3.421875 67.390625 3.421875 
Q 70.75 3.421875 72.921875 6.25 
Q 75.09375 9.078125 75.09375 16.609375 
Q 75.09375 23.53125 72.890625 26.34375 
Q 70.703125 29.15625 67.4375 29.15625 
z
" id="ArialMT-37"/>
      <path d="M 8.6875 0 
L 8.6875 45.015625 
L 0.921875 45.015625 
L 0.921875 51.859375 
L 8.6875 51.859375 
L 8.6875 57.375 
Q 8.6875 62.59375 9.625 65.140625 
Q 10.890625 68.5625 14.078125 70.671875 
Q 17.28125 72.796875 23.046875 72.796875 
Q 26.765625 72.796875 31.25 71.921875 
L 29.9375 64.265625 
Q 27.203125 64.75 24.75 64.75 
Q 20.75 64.75 19.09375 63.03125 
Q 17.4375 61.328125 17.4375 56.640625 
L 17.4375 51.859375 
L 27.546875 51.859375 
L 27.546875 45.015625 
L 17.4375 45.015625 
L 17.4375 0 
z
" id="ArialMT-102"/>
      <path d="M 21 0 
L 1.265625 51.859375 
L 10.546875 51.859375 
L 21.6875 20.796875 
Q 23.484375 15.765625 25 10.359375 
Q 26.171875 14.453125 28.265625 20.21875 
L 39.796875 51.859375 
L 48.828125 51.859375 
L 29.203125 0 
z
" id="ArialMT-118"/>
      <path d="M 6.640625 61.46875 
L 6.640625 71.578125 
L 15.4375 71.578125 
L 15.4375 61.46875 
z
M 6.640625 0 
L 6.640625 51.859375 
L 15.4375 51.859375 
L 15.4375 0 
z
" id="ArialMT-105"/>
      <path d="M 6.59375 0 
L 6.59375 51.859375 
L 14.5 51.859375 
L 14.5 44.484375 
Q 20.21875 53.03125 31 53.03125 
Q 35.6875 53.03125 39.625 51.34375 
Q 43.5625 49.65625 45.515625 46.921875 
Q 47.46875 44.1875 48.25 40.4375 
Q 48.734375 37.984375 48.734375 31.890625 
L 48.734375 0 
L 39.9375 0 
L 39.9375 31.546875 
Q 39.9375 36.921875 38.90625 39.578125 
Q 37.890625 42.234375 35.28125 43.8125 
Q 32.671875 45.40625 29.15625 45.40625 
Q 23.53125 45.40625 19.453125 41.84375 
Q 15.375 38.28125 15.375 28.328125 
L 15.375 0 
z
" id="ArialMT-110"/>
      <path d="M 42.09375 16.703125 
L 51.171875 15.578125 
Q 49.03125 7.625 43.21875 3.21875 
Q 37.40625 -1.171875 28.375 -1.171875 
Q 17 -1.171875 10.328125 5.828125 
Q 3.65625 12.84375 3.65625 25.484375 
Q 3.65625 38.578125 10.390625 45.796875 
Q 17.140625 53.03125 27.875 53.03125 
Q 38.28125 53.03125 44.875 45.953125 
Q 51.46875 38.875 51.46875 26.03125 
Q 51.46875 25.25 51.421875 23.6875 
L 12.75 23.6875 
Q 13.234375 15.140625 17.578125 10.59375 
Q 21.921875 6.0625 28.421875 6.0625 
Q 33.25 6.0625 36.671875 8.59375 
Q 40.09375 11.140625 42.09375 16.703125 
z
M 13.234375 30.90625 
L 42.1875 30.90625 
Q 41.609375 37.453125 38.875 40.71875 
Q 34.671875 45.796875 27.984375 45.796875 
Q 21.921875 45.796875 17.796875 41.75 
Q 13.671875 37.703125 13.234375 30.90625 
z
" id="ArialMT-101"/>
      <path d="M 0.734375 0 
L 19.671875 26.953125 
L 2.15625 51.859375 
L 13.140625 51.859375 
L 21.09375 39.703125 
Q 23.34375 36.234375 24.703125 33.890625 
Q 26.859375 37.109375 28.65625 39.59375 
L 37.40625 51.859375 
L 47.90625 51.859375 
L 29.984375 27.4375 
L 49.265625 0 
L 38.484375 0 
L 27.828125 16.109375 
L 25 20.453125 
L 11.375 0 
z
" id="ArialMT-120"/>
      <path d="M 6.59375 -19.875 
L 6.59375 51.859375 
L 14.59375 51.859375 
L 14.59375 45.125 
Q 17.4375 49.078125 21 51.046875 
Q 24.5625 53.03125 29.640625 53.03125 
Q 36.28125 53.03125 41.359375 49.609375 
Q 46.4375 46.1875 49.015625 39.953125 
Q 51.609375 33.734375 51.609375 26.3125 
Q 51.609375 18.359375 48.75 11.984375 
Q 45.90625 5.609375 40.453125 2.21875 
Q 35.015625 -1.171875 29 -1.171875 
Q 24.609375 -1.171875 21.109375 0.6875 
Q 17.625 2.546875 15.375 5.375 
L 15.375 -19.875 
z
M 14.546875 25.640625 
Q 14.546875 15.625 18.59375 10.84375 
Q 22.65625 6.0625 28.421875 6.0625 
Q 34.28125 6.0625 38.453125 11.015625 
Q 42.625 15.96875 42.625 26.375 
Q 42.625 36.28125 38.546875 41.203125 
Q 34.46875 46.140625 28.8125 46.140625 
Q 23.1875 46.140625 18.859375 40.890625 
Q 14.546875 35.640625 14.546875 25.640625 
z
" id="ArialMT-112"/>
      <path d="M 6.390625 0 
L 6.390625 71.578125 
L 15.1875 71.578125 
L 15.1875 0 
z
" id="ArialMT-108"/>
      <path d="M 40.234375 0 
L 40.234375 6.546875 
Q 35.296875 -1.171875 25.734375 -1.171875 
Q 19.53125 -1.171875 14.328125 2.25 
Q 9.125 5.671875 6.265625 11.796875 
Q 3.421875 17.921875 3.421875 25.875 
Q 3.421875 33.640625 6 39.96875 
Q 8.59375 46.296875 13.765625 49.65625 
Q 18.953125 53.03125 25.34375 53.03125 
Q 30.03125 53.03125 33.6875 51.046875 
Q 37.359375 49.078125 39.65625 45.90625 
L 39.65625 71.578125 
L 48.390625 71.578125 
L 48.390625 0 
z
M 12.453125 25.875 
Q 12.453125 15.921875 16.640625 10.984375 
Q 20.84375 6.0625 26.5625 6.0625 
Q 32.328125 6.0625 36.34375 10.765625 
Q 40.375 15.484375 40.375 25.140625 
Q 40.375 35.796875 36.265625 40.765625 
Q 32.171875 45.75 26.171875 45.75 
Q 20.3125 45.75 16.375 40.96875 
Q 12.453125 36.1875 12.453125 25.875 
z
" id="ArialMT-100"/>
      <path d="M 12.359375 -21.046875 
L 6.0625 -21.046875 
Q 20.65625 2.390625 20.65625 25.875 
Q 20.65625 35.0625 18.5625 44.09375 
Q 16.890625 51.421875 13.921875 58.15625 
Q 12.015625 62.546875 6.0625 72.796875 
L 12.359375 72.796875 
Q 21.53125 60.546875 25.921875 48.1875 
Q 29.6875 37.546875 29.6875 25.921875 
Q 29.6875 12.75 24.625 0.4375 
Q 19.578125 -11.859375 12.359375 -21.046875 
z
" id="ArialMT-41"/>
     </defs>
     <g style="fill:#262626;" transform="translate(115.775162 459.303519)scale(0.1728 -0.1728)">
      <use xlink:href="#ArialMT-70"/>
      <use x="61.083984" xlink:href="#ArialMT-97"/>
      <use x="116.699219" xlink:href="#ArialMT-99"/>
      <use x="166.699219" xlink:href="#ArialMT-116"/>
      <use x="194.482422" xlink:href="#ArialMT-111"/>
      <use x="250.097656" xlink:href="#ArialMT-114"/>
      <use x="283.398438" xlink:href="#ArialMT-32"/>
      <use x="311.181641" xlink:href="#ArialMT-49"/>
      <use x="366.796875" xlink:href="#ArialMT-32"/>
      <use x="394.580078" xlink:href="#ArialMT-40"/>
      <use x="427.880859" xlink:href="#ArialMT-54"/>
      <use x="483.496094" xlink:href="#ArialMT-51"/>
      <use x="539.111328" xlink:href="#ArialMT-46"/>
      <use x="566.894531" xlink:href="#ArialMT-54"/>
      <use x="622.509766" xlink:href="#ArialMT-56"/>
      <use x="678.125" xlink:href="#ArialMT-37"/>
      <use x="767.041016" xlink:href="#ArialMT-32"/>
      <use x="794.824219" xlink:href="#ArialMT-111"/>
      <use x="850.439453" xlink:href="#ArialMT-102"/>
      <use x="878.222656" xlink:href="#ArialMT-32"/>
      <use x="906.005859" xlink:href="#ArialMT-118"/>
      <use x="956.005859" xlink:href="#ArialMT-97"/>
      <use x="1011.621094" xlink:href="#ArialMT-114"/>
      <use x="1044.921875" xlink:href="#ArialMT-105"/>
      <use x="1067.138672" xlink:href="#ArialMT-97"/>
      <use x="1122.753906" xlink:href="#ArialMT-110"/>
      <use x="1178.369141" xlink:href="#ArialMT-99"/>
      <use x="1228.369141" xlink:href="#ArialMT-101"/>
      <use x="1283.984375" xlink:href="#ArialMT-32"/>
      <use x="1311.767578" xlink:href="#ArialMT-101"/>
      <use x="1367.382812" xlink:href="#ArialMT-120"/>
      <use x="1417.382812" xlink:href="#ArialMT-112"/>
      <use x="1472.998047" xlink:href="#ArialMT-108"/>
      <use x="1495.214844" xlink:href="#ArialMT-97"/>
      <use x="1550.830078" xlink:href="#ArialMT-105"/>
      <use x="1573.046875" xlink:href="#ArialMT-110"/>
      <use x="1628.662109" xlink:href="#ArialMT-101"/>
      <use x="1684.277344" xlink:href="#ArialMT-100"/>
      <use x="1739.892578" xlink:href="#ArialMT-41"/>
     </g>
    </g>
   </g>
   <g id="matplotlib.axis_2">
    <g id="ytick_1">
     <g id="line2d_19">
      <path clip-path="url(#pd0b5a2d2b7)" d="M 59.717763 426.578906 
L 478.217762 426.578906 
" style="fill:none;stroke:#666666;stroke-linecap:round;"/>
     </g>
     <g id="line2d_20"/>
     <g id="text_11">
      <!-- −1.00 -->
      <g style="fill:#262626;" transform="translate(27.4162 430.157812)scale(0.1 -0.1)">
       <use xlink:href="#ArialMT-8722"/>
       <use x="58.398438" xlink:href="#ArialMT-49"/>
       <use x="114.013672" xlink:href="#ArialMT-46"/>
       <use x="141.796875" xlink:href="#ArialMT-48"/>
       <use x="197.412109" xlink:href="#ArialMT-48"/>
      </g>
     </g>
    </g>
    <g id="ytick_2">
     <g id="line2d_21">
      <path clip-path="url(#pd0b5a2d2b7)" d="M 59.717763 374.603906 
L 478.217762 374.603906 
" style="fill:none;stroke:#666666;stroke-linecap:round;"/>
     </g>
     <g id="line2d_22"/>
     <g id="text_12">
      <!-- −0.75 -->
      <g style="fill:#262626;" transform="translate(27.4162 378.182812)scale(0.1 -0.1)">
       <use xlink:href="#ArialMT-8722"/>
       <use x="58.398438" xlink:href="#ArialMT-48"/>
       <use x="114.013672" xlink:href="#ArialMT-46"/>
       <use x="141.796875" xlink:href="#ArialMT-55"/>
       <use x="197.412109" xlink:href="#ArialMT-53"/>
      </g>
     </g>
    </g>
    <g id="ytick_3">
     <g id="line2d_23">
      <path clip-path="url(#pd0b5a2d2b7)" d="M 59.717763 322.628906 
L 478.217762 322.628906 
" style="fill:none;stroke:#666666;stroke-linecap:round;"/>
     </g>
     <g id="line2d_24"/>
     <g id="text_13">
      <!-- −0.50 -->
      <g style="fill:#262626;" transform="translate(27.4162 326.207812)scale(0.1 -0.1)">
       <use xlink:href="#ArialMT-8722"/>
       <use x="58.398438" xlink:href="#ArialMT-48"/>
       <use x="114.013672" xlink:href="#ArialMT-46"/>
       <use x="141.796875" xlink:href="#ArialMT-53"/>
       <use x="197.412109" xlink:href="#ArialMT-48"/>
      </g>
     </g>
    </g>
    <g id="ytick_4">
     <g id="line2d_25">
      <path clip-path="url(#pd0b5a2d2b7)" d="M 59.717763 270.653906 
L 478.217762 270.653906 
" style="fill:none;stroke:#666666;stroke-linecap:round;"/>
     </g>
     <g id="line2d_26"/>
     <g id="text_14">
      <!-- −0.25 -->
      <g style="fill:#262626;" transform="translate(27.4162 274.232812)scale(0.1 -0.1)">
       <use xlink:href="#ArialMT-8722"/>
       <use x="58.398438" xlink:href="#ArialMT-48"/>
       <use x="114.013672" xlink:href="#ArialMT-46"/>
       <use x="141.796875" xlink:href="#ArialMT-50"/>
       <use x="197.412109" xlink:href="#ArialMT-53"/>
      </g>
     </g>
    </g>
    <g id="ytick_5">
     <g id="line2d_27">
      <path clip-path="url(#pd0b5a2d2b7)" d="M 59.717763 218.678906 
L 478.217762 218.678906 
" style="fill:none;stroke:#666666;stroke-linecap:round;"/>
     </g>
     <g id="line2d_28"/>
     <g id="text_15">
      <!-- 0.00 -->
      <g style="fill:#262626;" transform="translate(33.256825 222.257812)scale(0.1 -0.1)">
       <use xlink:href="#ArialMT-48"/>
       <use x="55.615234" xlink:href="#ArialMT-46"/>
       <use x="83.398438" xlink:href="#ArialMT-48"/>
       <use x="139.013672" xlink:href="#ArialMT-48"/>
      </g>
     </g>
    </g>
    <g id="ytick_6">
     <g id="line2d_29">
      <path clip-path="url(#pd0b5a2d2b7)" d="M 59.717763 166.703906 
L 478.217762 166.703906 
" style="fill:none;stroke:#666666;stroke-linecap:round;"/>
     </g>
     <g id="line2d_30"/>
     <g id="text_16">
      <!-- 0.25 -->
      <g style="fill:#262626;" transform="translate(33.256825 170.282812)scale(0.1 -0.1)">
       <use xlink:href="#ArialMT-48"/>
       <use x="55.615234" xlink:href="#ArialMT-46"/>
       <use x="83.398438" xlink:href="#ArialMT-50"/>
       <use x="139.013672" xlink:href="#ArialMT-53"/>
      </g>
     </g>
    </g>
    <g id="ytick_7">
     <g id="line2d_31">
      <path clip-path="url(#pd0b5a2d2b7)" d="M 59.717763 114.728906 
L 478.217762 114.728906 
" style="fill:none;stroke:#666666;stroke-linecap:round;"/>
     </g>
     <g id="line2d_32"/>
     <g id="text_17">
      <!-- 0.50 -->
      <g style="fill:#262626;" transform="translate(33.256825 118.307812)scale(0.1 -0.1)">
       <use xlink:href="#ArialMT-48"/>
       <use x="55.615234" xlink:href="#ArialMT-46"/>
       <use x="83.398438" xlink:href="#ArialMT-53"/>
       <use x="139.013672" xlink:href="#ArialMT-48"/>
      </g>
     </g>
    </g>
    <g id="ytick_8">
     <g id="line2d_33">
      <path clip-path="url(#pd0b5a2d2b7)" d="M 59.717763 62.753906 
L 478.217762 62.753906 
" style="fill:none;stroke:#666666;stroke-linecap:round;"/>
     </g>
     <g id="line2d_34"/>
     <g id="text_18">
      <!-- 0.75 -->
      <g style="fill:#262626;" transform="translate(33.256825 66.332812)scale(0.1 -0.1)">
       <use xlink:href="#ArialMT-48"/>
       <use x="55.615234" xlink:href="#ArialMT-46"/>
       <use x="83.398438" xlink:href="#ArialMT-55"/>
       <use x="139.013672" xlink:href="#ArialMT-53"/>
      </g>
     </g>
    </g>
    <g id="ytick_9">
     <g id="line2d_35">
      <path clip-path="url(#pd0b5a2d2b7)" d="M 59.717763 10.778906 
L 478.217762 10.778906 
" style="fill:none;stroke:#666666;stroke-linecap:round;"/>
     </g>
     <g id="line2d_36"/>
     <g id="text_19">
      <!-- 1.00 -->
      <g style="fill:#262626;" transform="translate(33.256825 14.357812)scale(0.1 -0.1)">
       <use xlink:href="#ArialMT-49"/>
       <use x="55.615234" xlink:href="#ArialMT-46"/>
       <use x="83.398438" xlink:href="#ArialMT-48"/>
       <use x="139.013672" xlink:href="#ArialMT-48"/>
      </g>
     </g>
    </g>
    <g id="text_20">
     <!-- Factor 2 (26.62% of variance explained) -->
     <g style="fill:#262626;" transform="translate(19.7793 371.871506)rotate(-90)scale(0.1728 -0.1728)">
      <use xlink:href="#ArialMT-70"/>
      <use x="61.083984" xlink:href="#ArialMT-97"/>
      <use x="116.699219" xlink:href="#ArialMT-99"/>
      <use x="166.699219" xlink:href="#ArialMT-116"/>
      <use x="194.482422" xlink:href="#ArialMT-111"/>
      <use x="250.097656" xlink:href="#ArialMT-114"/>
      <use x="283.398438" xlink:href="#ArialMT-32"/>
      <use x="311.181641" xlink:href="#ArialMT-50"/>
      <use x="366.796875" xlink:href="#ArialMT-32"/>
      <use x="394.580078" xlink:href="#ArialMT-40"/>
      <use x="427.880859" xlink:href="#ArialMT-50"/>
      <use x="483.496094" xlink:href="#ArialMT-54"/>
      <use x="539.111328" xlink:href="#ArialMT-46"/>
      <use x="566.894531" xlink:href="#ArialMT-54"/>
      <use x="622.509766" xlink:href="#ArialMT-50"/>
      <use x="678.125" xlink:href="#ArialMT-37"/>
      <use x="767.041016" xlink:href="#ArialMT-32"/>
      <use x="794.824219" xlink:href="#ArialMT-111"/>
      <use x="850.439453" xlink:href="#ArialMT-102"/>
      <use x="878.222656" xlink:href="#ArialMT-32"/>
      <use x="906.005859" xlink:href="#ArialMT-118"/>
      <use x="956.005859" xlink:href="#ArialMT-97"/>
      <use x="1011.621094" xlink:href="#ArialMT-114"/>
      <use x="1044.921875" xlink:href="#ArialMT-105"/>
      <use x="1067.138672" xlink:href="#ArialMT-97"/>
      <use x="1122.753906" xlink:href="#ArialMT-110"/>
      <use x="1178.369141" xlink:href="#ArialMT-99"/>
      <use x="1228.369141" xlink:href="#ArialMT-101"/>
      <use x="1283.984375" xlink:href="#ArialMT-32"/>
      <use x="1311.767578" xlink:href="#ArialMT-101"/>
      <use x="1367.382812" xlink:href="#ArialMT-120"/>
      <use x="1417.382812" xlink:href="#ArialMT-112"/>
      <use x="1472.998047" xlink:href="#ArialMT-108"/>
      <use x="1495.214844" xlink:href="#ArialMT-97"/>
      <use x="1550.830078" xlink:href="#ArialMT-105"/>
      <use x="1573.046875" xlink:href="#ArialMT-110"/>
      <use x="1628.662109" xlink:href="#ArialMT-101"/>
      <use x="1684.277344" xlink:href="#ArialMT-100"/>
      <use x="1739.892578" xlink:href="#ArialMT-41"/>
     </g>
    </g>
   </g>
   <g id="patch_3">
    <path clip-path="url(#pd0b5a2d2b7)" d="M 268.967762 426.578906 
C 324.461511 426.578906 377.68985 404.673251 416.929856 365.686406 
C 456.169862 326.699561 478.217762 273.814631 478.217762 218.678906 
C 478.217762 163.543182 456.169862 110.658251 416.929856 71.671406 
C 377.68985 32.684562 324.461511 10.778906 268.967762 10.778906 
C 213.474014 10.778906 160.245675 32.684562 121.005669 71.671406 
C 81.765663 110.658251 59.717762 163.543182 59.717762 218.678906 
C 59.717762 273.814631 81.765663 326.699561 121.005669 365.686406 
C 160.245675 404.673251 213.474014 426.578906 268.967762 426.578906 
z
" style="fill:none;stroke:#ffffff;stroke-dasharray:3.7,1.6;stroke-dashoffset:0;stroke-linejoin:miter;"/>
   </g>
   <g id="line2d_37">
    <path clip-path="url(#pd0b5a2d2b7)" d="M 59.717763 218.678906 
L 478.217762 218.678906 
" style="fill:none;stroke:#ffffff;stroke-linecap:round;"/>
   </g>
   <g id="line2d_38">
    <path clip-path="url(#pd0b5a2d2b7)" d="M 268.967762 426.578906 
L 268.967762 10.778906 
" style="fill:none;stroke:#ffffff;stroke-linecap:round;"/>
   </g>
   <g id="patch_4">
    <path d="M 59.717763 426.578906 
L 59.717763 10.778906 
" style="fill:none;"/>
   </g>
   <g id="patch_5">
    <path d="M 478.217762 426.578906 
L 478.217762 10.778906 
" style="fill:none;"/>
   </g>
   <g id="patch_6">
    <path d="M 59.717762 426.578906 
L 478.217762 426.578906 
" style="fill:none;"/>
   </g>
   <g id="patch_7">
    <path d="M 59.717762 10.778906 
L 478.217762 10.778906 
" style="fill:none;"/>
   </g>
   <g id="PathCollection_1">
    <defs>
     <path d="M 0 4.330127 
C 1.148363 4.330127 2.249847 3.873878 3.061862 3.061862 
C 3.873878 2.249847 4.330127 1.148363 4.330127 0 
C 4.330127 -1.148363 3.873878 -2.249847 3.061862 -3.061862 
C 2.249847 -3.873878 1.148363 -4.330127 0 -4.330127 
C -1.148363 -4.330127 -2.249847 -3.873878 -3.061862 -3.061862 
C -3.873878 -2.249847 -4.330127 -1.148363 -4.330127 0 
C -4.330127 1.148363 -3.873878 2.249847 -3.061862 3.061862 
C -2.249847 3.873878 -1.148363 4.330127 0 4.330127 
z
" id="C0_0_083874d6ee"/>
    </defs>
    <g clip-path="url(#pd0b5a2d2b7)">
     <use style="fill:#3566c9;fill-opacity:0.75;stroke:#3566c9;stroke-opacity:0.75;stroke-width:0.3;" x="394.541894" xlink:href="#C0_0_083874d6ee" y="304.266278"/>
    </g>
    <g clip-path="url(#pd0b5a2d2b7)">
     <use style="fill:#3566c9;fill-opacity:0.75;stroke:#3566c9;stroke-opacity:0.75;stroke-width:0.3;" x="460.466629" xlink:href="#C0_0_083874d6ee" y="224.290802"/>
    </g>
    <g clip-path="url(#pd0b5a2d2b7)">
     <use style="fill:#3566c9;fill-opacity:0.75;stroke:#3566c9;stroke-opacity:0.75;stroke-width:0.3;" x="427.38238" xlink:href="#C0_0_083874d6ee" y="238.037383"/>
    </g>
    <g clip-path="url(#pd0b5a2d2b7)">
     <use style="fill:#3566c9;fill-opacity:0.75;stroke:#3566c9;stroke-opacity:0.75;stroke-width:0.3;" x="332.996316" xlink:href="#C0_0_083874d6ee" y="260.868871"/>
    </g>
    <g clip-path="url(#pd0b5a2d2b7)">
     <use style="fill:#3566c9;fill-opacity:0.75;stroke:#3566c9;stroke-opacity:0.75;stroke-width:0.3;" x="316.605622" xlink:href="#C0_0_083874d6ee" y="274.590576"/>
    </g>
    <g clip-path="url(#pd0b5a2d2b7)">
     <use style="fill:#db3821;fill-opacity:0.75;stroke:#db3821;stroke-opacity:0.75;stroke-width:0.3;" x="175.047468" xlink:href="#C0_0_083874d6ee" y="349.997487"/>
    </g>
    <g clip-path="url(#pd0b5a2d2b7)">
     <use style="fill:#3566c9;fill-opacity:0.75;stroke:#3566c9;stroke-opacity:0.75;stroke-width:0.3;" x="442.780825" xlink:href="#C0_0_083874d6ee" y="263.876585"/>
    </g>
    <g clip-path="url(#pd0b5a2d2b7)">
     <use style="fill:#3566c9;fill-opacity:0.75;stroke:#3566c9;stroke-opacity:0.75;stroke-width:0.3;" x="462.240865" xlink:href="#C0_0_083874d6ee" y="215.439407"/>
    </g>
    <g clip-path="url(#pd0b5a2d2b7)">
     <use style="fill:#3566c9;fill-opacity:0.75;stroke:#3566c9;stroke-opacity:0.75;stroke-width:0.3;" x="459.173135" xlink:href="#C0_0_083874d6ee" y="233.669681"/>
    </g>
    <g clip-path="url(#pd0b5a2d2b7)">
     <use style="fill:#3566c9;fill-opacity:0.75;stroke:#3566c9;stroke-opacity:0.75;stroke-width:0.3;" x="424.078978" xlink:href="#C0_0_083874d6ee" y="258.122653"/>
    </g>
    <g clip-path="url(#pd0b5a2d2b7)">
     <use style="fill:#3566c9;fill-opacity:0.75;stroke:#3566c9;stroke-opacity:0.75;stroke-width:0.3;" x="367.474523" xlink:href="#C0_0_083874d6ee" y="262.505277"/>
    </g>
    <g clip-path="url(#pd0b5a2d2b7)">
     <use style="fill:#3566c9;fill-opacity:0.75;stroke:#3566c9;stroke-opacity:0.75;stroke-width:0.3;" x="288.28417" xlink:href="#C0_0_083874d6ee" y="295.336891"/>
    </g>
    <g clip-path="url(#pd0b5a2d2b7)">
     <use style="fill:#db3821;fill-opacity:0.75;stroke:#db3821;stroke-opacity:0.75;stroke-width:0.3;" x="98.173961" xlink:href="#C0_0_083874d6ee" y="286.419053"/>
    </g>
    <g clip-path="url(#pd0b5a2d2b7)">
     <use style="fill:#fe9928;fill-opacity:0.75;stroke:#fe9928;stroke-opacity:0.75;stroke-width:0.3;" x="323.725446" xlink:href="#C0_0_083874d6ee" y="25.261465"/>
    </g>
    <g clip-path="url(#pd0b5a2d2b7)">
     <use style="fill:#3566c9;fill-opacity:0.75;stroke:#3566c9;stroke-opacity:0.75;stroke-width:0.3;" x="431.315803" xlink:href="#C0_0_083874d6ee" y="191.858295"/>
    </g>
    <g clip-path="url(#pd0b5a2d2b7)">
     <use style="fill:#3566c9;fill-opacity:0.75;stroke:#3566c9;stroke-opacity:0.75;stroke-width:0.3;" x="439.673416" xlink:href="#C0_0_083874d6ee" y="249.805227"/>
    </g>
    <g clip-path="url(#pd0b5a2d2b7)">
     <use style="fill:#3566c9;fill-opacity:0.75;stroke:#3566c9;stroke-opacity:0.75;stroke-width:0.3;" x="370.589115" xlink:href="#C0_0_083874d6ee" y="263.017574"/>
    </g>
    <g clip-path="url(#pd0b5a2d2b7)">
     <use style="fill:#3566c9;fill-opacity:0.75;stroke:#3566c9;stroke-opacity:0.75;stroke-width:0.3;" x="290.054983" xlink:href="#C0_0_083874d6ee" y="303.926921"/>
    </g>
    <g clip-path="url(#pd0b5a2d2b7)">
     <use style="fill:#db3821;fill-opacity:0.75;stroke:#db3821;stroke-opacity:0.75;stroke-width:0.3;" x="155.617671" xlink:href="#C0_0_083874d6ee" y="314.766899"/>
    </g>
    <g clip-path="url(#pd0b5a2d2b7)">
     <use style="fill:#db3821;fill-opacity:0.75;stroke:#db3821;stroke-opacity:0.75;stroke-width:0.3;" x="110.783503" xlink:href="#C0_0_083874d6ee" y="315.859467"/>
    </g>
    <g clip-path="url(#pd0b5a2d2b7)">
     <use style="fill:#db3821;fill-opacity:0.75;stroke:#db3821;stroke-opacity:0.75;stroke-width:0.3;" x="220.46895" xlink:href="#C0_0_083874d6ee" y="183.031079"/>
    </g>
    <g clip-path="url(#pd0b5a2d2b7)">
     <use style="fill:#3566c9;fill-opacity:0.75;stroke:#3566c9;stroke-opacity:0.75;stroke-width:0.3;" x="446.785763" xlink:href="#C0_0_083874d6ee" y="212.183382"/>
    </g>
    <g clip-path="url(#pd0b5a2d2b7)">
     <use style="fill:#3566c9;fill-opacity:0.75;stroke:#3566c9;stroke-opacity:0.75;stroke-width:0.3;" x="436.495847" xlink:href="#C0_0_083874d6ee" y="261.200802"/>
    </g>
    <g clip-path="url(#pd0b5a2d2b7)">
     <use style="fill:#3566c9;fill-opacity:0.75;stroke:#3566c9;stroke-opacity:0.75;stroke-width:0.3;" x="401.641508" xlink:href="#C0_0_083874d6ee" y="259.704408"/>
    </g>
    <g clip-path="url(#pd0b5a2d2b7)">
     <use style="fill:#3566c9;fill-opacity:0.75;stroke:#3566c9;stroke-opacity:0.75;stroke-width:0.3;" x="326.342645" xlink:href="#C0_0_083874d6ee" y="267.691702"/>
    </g>
    <g clip-path="url(#pd0b5a2d2b7)">
     <use style="fill:#db3821;fill-opacity:0.75;stroke:#db3821;stroke-opacity:0.75;stroke-width:0.3;" x="169.668273" xlink:href="#C0_0_083874d6ee" y="324.12848"/>
    </g>
    <g clip-path="url(#pd0b5a2d2b7)">
     <use style="fill:#db3821;fill-opacity:0.75;stroke:#db3821;stroke-opacity:0.75;stroke-width:0.3;" x="165.138719" xlink:href="#C0_0_083874d6ee" y="242.645881"/>
    </g>
    <g clip-path="url(#pd0b5a2d2b7)">
     <use style="fill:#db3821;fill-opacity:0.75;stroke:#db3821;stroke-opacity:0.75;stroke-width:0.3;" x="117.285444" xlink:href="#C0_0_083874d6ee" y="274.240087"/>
    </g>
    <g clip-path="url(#pd0b5a2d2b7)">
     <use style="fill:#db3821;fill-opacity:0.75;stroke:#db3821;stroke-opacity:0.75;stroke-width:0.3;" x="109.943313" xlink:href="#C0_0_083874d6ee" y="214.718122"/>
    </g>
    <g clip-path="url(#pd0b5a2d2b7)">
     <use style="fill:#fe9928;fill-opacity:0.75;stroke:#fe9928;stroke-opacity:0.75;stroke-width:0.3;" x="172.012641" xlink:href="#C0_0_083874d6ee" y="58.93085"/>
    </g>
    <g clip-path="url(#pd0b5a2d2b7)">
     <use style="fill:#fe9928;fill-opacity:0.75;stroke:#fe9928;stroke-opacity:0.75;stroke-width:0.3;" x="232.908108" xlink:href="#C0_0_083874d6ee" y="19.269132"/>
    </g>
    <g clip-path="url(#pd0b5a2d2b7)">
     <use style="fill:#fe9928;fill-opacity:0.75;stroke:#fe9928;stroke-opacity:0.75;stroke-width:0.3;" x="259.935711" xlink:href="#C0_0_083874d6ee" y="21.233532"/>
    </g>
    <g clip-path="url(#pd0b5a2d2b7)">
     <use style="fill:#3566c9;fill-opacity:0.75;stroke:#3566c9;stroke-opacity:0.75;stroke-width:0.3;" x="312.849511" xlink:href="#C0_0_083874d6ee" y="128.103661"/>
    </g>
    <g clip-path="url(#pd0b5a2d2b7)">
     <use style="fill:#3566c9;fill-opacity:0.75;stroke:#3566c9;stroke-opacity:0.75;stroke-width:0.3;" x="363.163116" xlink:href="#C0_0_083874d6ee" y="270.003764"/>
    </g>
    <g clip-path="url(#pd0b5a2d2b7)">
     <use style="fill:#3566c9;fill-opacity:0.75;stroke:#3566c9;stroke-opacity:0.75;stroke-width:0.3;" x="349.178315" xlink:href="#C0_0_083874d6ee" y="265.883082"/>
    </g>
    <g clip-path="url(#pd0b5a2d2b7)">
     <use style="fill:#db3821;fill-opacity:0.75;stroke:#db3821;stroke-opacity:0.75;stroke-width:0.3;" x="218.037718" xlink:href="#C0_0_083874d6ee" y="312.650979"/>
    </g>
    <g clip-path="url(#pd0b5a2d2b7)">
     <use style="fill:#db3821;fill-opacity:0.75;stroke:#db3821;stroke-opacity:0.75;stroke-width:0.3;" x="119.851347" xlink:href="#C0_0_083874d6ee" y="275.157984"/>
    </g>
    <g clip-path="url(#pd0b5a2d2b7)">
     <use style="fill:#db3821;fill-opacity:0.75;stroke:#db3821;stroke-opacity:0.75;stroke-width:0.3;" x="108.313922" xlink:href="#C0_0_083874d6ee" y="232.898542"/>
    </g>
    <g clip-path="url(#pd0b5a2d2b7)">
     <use style="fill:#fe9928;fill-opacity:0.75;stroke:#fe9928;stroke-opacity:0.75;stroke-width:0.3;" x="164.889265" xlink:href="#C0_0_083874d6ee" y="70.708324"/>
    </g>
    <g clip-path="url(#pd0b5a2d2b7)">
     <use style="fill:#fe9928;fill-opacity:0.75;stroke:#fe9928;stroke-opacity:0.75;stroke-width:0.3;" x="225.711056" xlink:href="#C0_0_083874d6ee" y="24.751014"/>
    </g>
    <g clip-path="url(#pd0b5a2d2b7)">
     <use style="fill:#fe9928;fill-opacity:0.75;stroke:#fe9928;stroke-opacity:0.75;stroke-width:0.3;" x="273.729924" xlink:href="#C0_0_083874d6ee" y="29.152701"/>
    </g>
    <g clip-path="url(#pd0b5a2d2b7)">
     <use style="fill:#3566c9;fill-opacity:0.75;stroke:#3566c9;stroke-opacity:0.75;stroke-width:0.3;" x="320.698427" xlink:href="#C0_0_083874d6ee" y="146.539945"/>
    </g>
    <g clip-path="url(#pd0b5a2d2b7)">
     <use style="fill:#3566c9;fill-opacity:0.75;stroke:#3566c9;stroke-opacity:0.75;stroke-width:0.3;" x="336.830826" xlink:href="#C0_0_083874d6ee" y="253.565263"/>
    </g>
    <g clip-path="url(#pd0b5a2d2b7)">
     <use style="fill:#3566c9;fill-opacity:0.75;stroke:#3566c9;stroke-opacity:0.75;stroke-width:0.3;" x="330.847554" xlink:href="#C0_0_083874d6ee" y="264.891972"/>
    </g>
    <g clip-path="url(#pd0b5a2d2b7)">
     <use style="fill:#db3821;fill-opacity:0.75;stroke:#db3821;stroke-opacity:0.75;stroke-width:0.3;" x="107.189644" xlink:href="#C0_0_083874d6ee" y="303.25426"/>
    </g>
    <g clip-path="url(#pd0b5a2d2b7)">
     <use style="fill:#db3821;fill-opacity:0.75;stroke:#db3821;stroke-opacity:0.75;stroke-width:0.3;" x="107.691464" xlink:href="#C0_0_083874d6ee" y="259.94004"/>
    </g>
    <g clip-path="url(#pd0b5a2d2b7)">
     <use style="fill:#db3821;fill-opacity:0.75;stroke:#db3821;stroke-opacity:0.75;stroke-width:0.3;" x="94.451396" xlink:href="#C0_0_083874d6ee" y="186.071224"/>
    </g>
    <g clip-path="url(#pd0b5a2d2b7)">
     <use style="fill:#fe9928;fill-opacity:0.75;stroke:#fe9928;stroke-opacity:0.75;stroke-width:0.3;" x="236.277682" xlink:href="#C0_0_083874d6ee" y="26.225665"/>
    </g>
    <g clip-path="url(#pd0b5a2d2b7)">
     <use style="fill:#fe9928;fill-opacity:0.75;stroke:#fe9928;stroke-opacity:0.75;stroke-width:0.3;" x="306.879874" xlink:href="#C0_0_083874d6ee" y="22.922388"/>
    </g>
    <g clip-path="url(#pd0b5a2d2b7)">
     <use style="fill:#3566c9;fill-opacity:0.75;stroke:#3566c9;stroke-opacity:0.75;stroke-width:0.3;" x="439.017809" xlink:href="#C0_0_083874d6ee" y="106.402335"/>
    </g>
    <g clip-path="url(#pd0b5a2d2b7)">
     <use style="fill:#3566c9;fill-opacity:0.75;stroke:#3566c9;stroke-opacity:0.75;stroke-width:0.3;" x="437.36421" xlink:href="#C0_0_083874d6ee" y="211.201359"/>
    </g>
    <g clip-path="url(#pd0b5a2d2b7)">
     <use style="fill:#db3821;fill-opacity:0.75;stroke:#db3821;stroke-opacity:0.75;stroke-width:0.3;" x="107.927593" xlink:href="#C0_0_083874d6ee" y="295.683521"/>
    </g>
    <g clip-path="url(#pd0b5a2d2b7)">
     <use style="fill:#db3821;fill-opacity:0.75;stroke:#db3821;stroke-opacity:0.75;stroke-width:0.3;" x="107.06282" xlink:href="#C0_0_083874d6ee" y="238.655835"/>
    </g>
    <g clip-path="url(#pd0b5a2d2b7)">
     <use style="fill:#db3821;fill-opacity:0.75;stroke:#db3821;stroke-opacity:0.75;stroke-width:0.3;" x="116.175015" xlink:href="#C0_0_083874d6ee" y="153.208576"/>
    </g>
    <g clip-path="url(#pd0b5a2d2b7)">
     <use style="fill:#fe9928;fill-opacity:0.75;stroke:#fe9928;stroke-opacity:0.75;stroke-width:0.3;" x="303.952824" xlink:href="#C0_0_083874d6ee" y="23.269887"/>
    </g>
    <g clip-path="url(#pd0b5a2d2b7)">
     <use style="fill:#fe9928;fill-opacity:0.75;stroke:#fe9928;stroke-opacity:0.75;stroke-width:0.3;" x="328.332884" xlink:href="#C0_0_083874d6ee" y="24.537164"/>
    </g>
    <g clip-path="url(#pd0b5a2d2b7)">
     <use style="fill:#3566c9;fill-opacity:0.75;stroke:#3566c9;stroke-opacity:0.75;stroke-width:0.3;" x="454.80057" xlink:href="#C0_0_083874d6ee" y="125.022258"/>
    </g>
    <g clip-path="url(#pd0b5a2d2b7)">
     <use style="fill:#3566c9;fill-opacity:0.75;stroke:#3566c9;stroke-opacity:0.75;stroke-width:0.3;" x="437.684189" xlink:href="#C0_0_083874d6ee" y="225.12543"/>
    </g>
   </g>
  </g>
 </g>
 <defs>
  <clipPath id="pd0b5a2d2b7">
   <rect height="415.8" width="418.5" x="59.717763" y="10.778906"/>
  </clipPath>
 </defs>
</svg>
